<svg xmlns="http://www.w3.org/2000/svg" xmlns:xlink="http://www.w3.org/1999/xlink" width="50" zoomAndPan="magnify" viewBox="0 0 37.5 30.000001" height="40" preserveAspectRatio="xMidYMid meet" version="1.0"><defs><clipPath id="8b04db1a4e"><path d="M 1.667969 8.230469 L 15.460938 8.230469 L 15.460938 23.472656 L 1.667969 23.472656 Z M 1.667969 8.230469 " clip-rule="nonzero"/></clipPath><clipPath id="76a00a8cd1"><path d="M 26 7.707031 L 29 7.707031 L 29 12 L 26 12 Z M 26 7.707031 " clip-rule="nonzero"/></clipPath><clipPath id="cc22faae33"><path d="M 26 20 L 29 20 L 29 24.402344 L 26 24.402344 Z M 26 20 " clip-rule="nonzero"/></clipPath><clipPath id="c6b194c34a"><path d="M 31 15 L 35.925781 15 L 35.925781 17 L 31 17 Z M 31 15 " clip-rule="nonzero"/></clipPath><clipPath id="0e05e7a272"><path d="M 19.234375 15 L 24 15 L 24 17 L 19.234375 17 Z M 19.234375 15 " clip-rule="nonzero"/></clipPath></defs><g clip-path="url(#8b04db1a4e)"><path fill="#ffed00" d="M 11.335938 22.0625 C 12.128906 22.066406 12.894531 21.917969 13.632812 21.621094 C 14.371094 21.324219 15.023438 20.902344 15.597656 20.351562 C 14.878906 21.363281 13.964844 22.15625 12.863281 22.726562 C 11.757812 23.296875 10.582031 23.582031 9.339844 23.582031 C 5.105469 23.582031 1.671875 20.148438 1.671875 15.910156 C 1.671875 11.675781 5.105469 8.238281 9.339844 8.238281 C 10.582031 8.238281 11.757812 8.523438 12.863281 9.09375 C 13.964844 9.664062 14.878906 10.457031 15.597656 11.46875 C 15.023438 10.917969 14.371094 10.496094 13.632812 10.199219 C 12.894531 9.902344 12.128906 9.757812 11.335938 9.757812 C 7.9375 9.757812 5.183594 12.511719 5.183594 15.910156 C 5.183594 19.308594 7.9375 22.0625 11.335938 22.0625 Z M 11.335938 22.0625 " fill-opacity="1" fill-rule="nonzero"/></g><path fill="#ffffff" d="M 31.261719 15.933594 C 31.261719 18.046875 29.546875 19.761719 27.4375 19.761719 C 25.324219 19.761719 23.609375 18.046875 23.609375 15.933594 C 23.609375 13.820312 25.324219 12.109375 27.4375 12.109375 C 29.546875 12.109375 31.261719 13.820312 31.261719 15.933594 " fill-opacity="1" fill-rule="nonzero"/><path fill="#ffffff" d="M 27.4375 12.296875 C 25.429688 12.296875 23.796875 13.929688 23.796875 15.933594 C 23.796875 17.941406 25.429688 19.570312 27.4375 19.570312 C 29.441406 19.570312 31.074219 17.941406 31.074219 15.933594 C 31.074219 13.929688 29.441406 12.296875 27.4375 12.296875 Z M 27.4375 19.949219 C 25.222656 19.949219 23.421875 18.148438 23.421875 15.933594 C 23.421875 13.71875 25.222656 11.921875 27.4375 11.921875 C 29.648438 11.921875 31.449219 13.71875 31.449219 15.933594 C 31.449219 18.148438 29.648438 19.949219 27.4375 19.949219 " fill-opacity="1" fill-rule="nonzero"/><path fill="#ffffff" d="M 28.050781 11.570312 L 26.820312 11.570312 L 27.4375 8.628906 Z M 28.050781 11.570312 " fill-opacity="1" fill-rule="nonzero"/><g clip-path="url(#76a00a8cd1)"><path fill="#ffffff" d="M 27.050781 11.378906 L 27.820312 11.378906 L 27.4375 9.546875 Z M 28.28125 11.757812 L 26.589844 11.757812 L 27.4375 7.710938 L 28.28125 11.757812 " fill-opacity="1" fill-rule="nonzero"/></g><path fill="#ffffff" d="M 26.820312 20.25 L 28.050781 20.25 L 27.4375 23.191406 Z M 26.820312 20.25 " fill-opacity="1" fill-rule="nonzero"/><g clip-path="url(#cc22faae33)"><path fill="#ffffff" d="M 27.050781 20.441406 L 27.4375 22.273438 L 27.820312 20.441406 Z M 27.4375 24.109375 L 26.589844 20.0625 L 28.28125 20.0625 L 27.4375 24.109375 " fill-opacity="1" fill-rule="nonzero"/></g><path fill="#ffffff" d="M 31.777344 16.527344 L 31.777344 15.292969 L 34.71875 15.910156 Z M 31.777344 16.527344 " fill-opacity="1" fill-rule="nonzero"/><g clip-path="url(#c6b194c34a)"><path fill="#ffffff" d="M 31.964844 15.527344 L 31.964844 16.292969 L 33.796875 15.910156 Z M 31.589844 16.757812 L 31.589844 15.0625 L 35.636719 15.910156 L 31.589844 16.757812 " fill-opacity="1" fill-rule="nonzero"/></g><path fill="#ffffff" d="M 23.09375 15.292969 L 23.09375 16.527344 L 20.15625 15.910156 Z M 23.09375 15.292969 " fill-opacity="1" fill-rule="nonzero"/><g clip-path="url(#0e05e7a272)"><path fill="#ffffff" d="M 21.074219 15.910156 L 22.90625 16.292969 L 22.90625 15.527344 Z M 23.28125 16.757812 L 19.234375 15.910156 L 23.28125 15.0625 L 23.28125 16.757812 " fill-opacity="1" fill-rule="nonzero"/></g><path fill="#ffffff" d="M 30.941406 13.277344 L 30.070312 12.40625 L 32.585938 10.761719 Z M 30.941406 13.277344 " fill-opacity="1" fill-rule="nonzero"/><path fill="#ffffff" d="M 30.367188 12.4375 L 30.910156 12.976562 L 31.933594 11.410156 Z M 30.972656 13.574219 L 29.773438 12.375 L 33.234375 10.113281 L 30.972656 13.574219 " fill-opacity="1" fill-rule="nonzero"/><path fill="#ffffff" d="M 23.929688 18.542969 L 24.800781 19.414062 L 22.289062 21.058594 Z M 23.929688 18.542969 " fill-opacity="1" fill-rule="nonzero"/><path fill="#ffffff" d="M 23.960938 18.839844 L 22.9375 20.410156 L 24.503906 19.382812 Z M 21.636719 21.707031 L 23.898438 18.246094 L 25.097656 19.445312 L 21.636719 21.707031 " fill-opacity="1" fill-rule="nonzero"/><path fill="#ffffff" d="M 24.800781 12.40625 L 23.929688 13.277344 L 22.289062 10.761719 Z M 24.800781 12.40625 " fill-opacity="1" fill-rule="nonzero"/><path fill="#ffffff" d="M 22.9375 11.410156 L 23.960938 12.976562 L 24.503906 12.4375 Z M 23.898438 13.574219 L 21.636719 10.113281 L 25.097656 12.375 L 23.898438 13.574219 " fill-opacity="1" fill-rule="nonzero"/><path fill="#ffffff" d="M 30.070312 19.414062 L 30.941406 18.542969 L 32.585938 21.058594 Z M 30.070312 19.414062 " fill-opacity="1" fill-rule="nonzero"/><path fill="#ffffff" d="M 30.367188 19.382812 L 31.933594 20.410156 L 30.910156 18.839844 Z M 33.234375 21.707031 L 29.773438 19.445312 L 30.972656 18.246094 L 33.234375 21.707031 " fill-opacity="1" fill-rule="nonzero"/></svg>