<svg xmlns="http://www.w3.org/2000/svg" xmlns:xlink="http://www.w3.org/1999/xlink" width="200" zoomAndPan="magnify" viewBox="0 0 150 149.999998" height="200" preserveAspectRatio="xMidYMid meet" version="1.0"><defs><clipPath id="a365c12198"><path d="M 150 111.933594 C 150 112.757812 149.972656 114.527344 149.921875 115.917969 C 149.792969 119.28125 149.539062 123.621094 149.125 125.597656 C 148.511719 128.578125 147.609375 131.378906 146.402344 133.714844 C 144.992188 136.488281 143.195312 138.957031 141.035156 141.085938 C 138.902344 143.21875 136.4375 145.015625 133.664062 146.429688 C 131.328125 147.636719 128.5 148.535156 125.496094 149.152344 C 123.542969 149.539062 119.230469 149.820312 115.890625 149.921875 C 114.503906 149.972656 112.730469 150 111.910156 150 L 38.039062 150 C 37.21875 150 35.445312 149.972656 34.058594 149.921875 C 30.695312 149.792969 26.351562 149.539062 24.375 149.125 C 21.394531 148.511719 18.597656 147.609375 16.257812 146.402344 C 13.484375 144.992188 11.019531 143.195312 8.886719 141.035156 C 6.753906 138.902344 4.957031 136.4375 3.542969 133.664062 C 2.335938 131.328125 1.4375 128.5 0.820312 125.496094 C 0.4375 123.542969 0.152344 119.230469 0.0507812 115.890625 C 0.0273438 114.527344 0 112.757812 0 111.933594 L 0 38.066406 C 0 37.242188 0.0273438 35.472656 0.078125 34.082031 C 0.207031 30.71875 0.460938 26.378906 0.875 24.402344 C 1.488281 21.421875 2.390625 18.621094 3.597656 16.285156 C 5.007812 13.511719 6.804688 11.042969 8.9375 8.914062 C 11.070312 6.78125 13.535156 4.984375 16.308594 3.570312 C 18.648438 2.363281 21.472656 1.464844 24.476562 0.847656 C 26.429688 0.460938 30.746094 0.179688 34.082031 0.078125 C 35.472656 0.0273438 37.242188 0 38.066406 0 L 111.933594 0 C 112.757812 0 114.527344 0.0273438 115.917969 0.078125 C 119.28125 0.207031 123.621094 0.460938 125.597656 0.875 C 128.578125 1.488281 131.378906 2.390625 133.714844 3.597656 C 136.488281 5.007812 138.957031 6.804688 141.085938 8.964844 C 143.21875 11.097656 145.015625 13.5625 146.429688 16.335938 C 147.636719 18.671875 148.535156 21.5 149.152344 24.503906 C 149.539062 26.457031 149.820312 30.769531 149.921875 34.109375 C 149.972656 35.496094 150 37.269531 150 38.089844 Z M 150 111.933594 " clip-rule="evenodd"/></clipPath><linearGradient x1="292.022" gradientTransform="matrix(0.256849, 0, 0, 0.256849, 0.00000125, 0.000002)" y1="583.999957" x2="292.022" gradientUnits="userSpaceOnUse" y2="0.00000113249" id="efd219ed0f"><stop stop-opacity="1" stop-color="rgb(14.500427%, 81.201172%, 26.301575%)" offset="0"/><stop stop-opacity="1" stop-color="rgb(14.683533%, 81.341553%, 26.478577%)" offset="0.015625"/><stop stop-opacity="1" stop-color="rgb(15.05127%, 81.622314%, 26.832581%)" offset="0.03125"/><stop stop-opacity="1" stop-color="rgb(15.419006%, 81.903076%, 27.186584%)" offset="0.046875"/><stop stop-opacity="1" stop-color="rgb(15.785217%, 82.185364%, 27.542114%)" offset="0.0625"/><stop stop-opacity="1" stop-color="rgb(16.152954%, 82.466125%, 27.896118%)" offset="0.078125"/><stop stop-opacity="1" stop-color="rgb(16.520691%, 82.746887%, 28.251648%)" offset="0.09375"/><stop stop-opacity="1" stop-color="rgb(16.886902%, 83.027649%, 28.605652%)" offset="0.109375"/><stop stop-opacity="1" stop-color="rgb(17.254639%, 83.309937%, 28.961182%)" offset="0.125"/><stop stop-opacity="1" stop-color="rgb(17.62085%, 83.590698%, 29.315186%)" offset="0.140625"/><stop stop-opacity="1" stop-color="rgb(17.988586%, 83.87146%, 29.669189%)" offset="0.15625"/><stop stop-opacity="1" stop-color="rgb(18.356323%, 84.153748%, 30.024719%)" offset="0.171875"/><stop stop-opacity="1" stop-color="rgb(18.722534%, 84.434509%, 30.378723%)" offset="0.1875"/><stop stop-opacity="1" stop-color="rgb(19.090271%, 84.715271%, 30.734253%)" offset="0.203125"/><stop stop-opacity="1" stop-color="rgb(19.456482%, 84.997559%, 31.088257%)" offset="0.21875"/><stop stop-opacity="1" stop-color="rgb(19.824219%, 85.27832%, 31.443787%)" offset="0.234375"/><stop stop-opacity="1" stop-color="rgb(20.191956%, 85.559082%, 31.797791%)" offset="0.25"/><stop stop-opacity="1" stop-color="rgb(20.558167%, 85.84137%, 32.151794%)" offset="0.265625"/><stop stop-opacity="1" stop-color="rgb(20.925903%, 86.122131%, 32.507324%)" offset="0.28125"/><stop stop-opacity="1" stop-color="rgb(21.29364%, 86.402893%, 32.861328%)" offset="0.296875"/><stop stop-opacity="1" stop-color="rgb(21.659851%, 86.683655%, 33.216858%)" offset="0.3125"/><stop stop-opacity="1" stop-color="rgb(22.027588%, 86.965942%, 33.570862%)" offset="0.328125"/><stop stop-opacity="1" stop-color="rgb(22.393799%, 87.246704%, 33.926392%)" offset="0.34375"/><stop stop-opacity="1" stop-color="rgb(22.761536%, 87.527466%, 34.280396%)" offset="0.359375"/><stop stop-opacity="1" stop-color="rgb(23.129272%, 87.809753%, 34.635925%)" offset="0.375"/><stop stop-opacity="1" stop-color="rgb(23.495483%, 88.090515%, 34.989929%)" offset="0.390625"/><stop stop-opacity="1" stop-color="rgb(23.86322%, 88.371277%, 35.343933%)" offset="0.40625"/><stop stop-opacity="1" stop-color="rgb(24.230957%, 88.653564%, 35.699463%)" offset="0.421875"/><stop stop-opacity="1" stop-color="rgb(24.597168%, 88.934326%, 36.053467%)" offset="0.4375"/><stop stop-opacity="1" stop-color="rgb(24.964905%, 89.215088%, 36.408997%)" offset="0.453125"/><stop stop-opacity="1" stop-color="rgb(25.331116%, 89.497375%, 36.763%)" offset="0.46875"/><stop stop-opacity="1" stop-color="rgb(25.698853%, 89.778137%, 37.11853%)" offset="0.484375"/><stop stop-opacity="1" stop-color="rgb(26.066589%, 90.058899%, 37.472534%)" offset="0.5"/><stop stop-opacity="1" stop-color="rgb(26.4328%, 90.339661%, 37.826538%)" offset="0.515625"/><stop stop-opacity="1" stop-color="rgb(26.800537%, 90.621948%, 38.182068%)" offset="0.53125"/><stop stop-opacity="1" stop-color="rgb(27.168274%, 90.90271%, 38.536072%)" offset="0.546875"/><stop stop-opacity="1" stop-color="rgb(27.534485%, 91.183472%, 38.891602%)" offset="0.5625"/><stop stop-opacity="1" stop-color="rgb(27.902222%, 91.465759%, 39.245605%)" offset="0.578125"/><stop stop-opacity="1" stop-color="rgb(28.268433%, 91.746521%, 39.601135%)" offset="0.59375"/><stop stop-opacity="1" stop-color="rgb(28.636169%, 92.027283%, 39.955139%)" offset="0.609375"/><stop stop-opacity="1" stop-color="rgb(29.003906%, 92.30957%, 40.309143%)" offset="0.625"/><stop stop-opacity="1" stop-color="rgb(29.370117%, 92.590332%, 40.664673%)" offset="0.640625"/><stop stop-opacity="1" stop-color="rgb(29.737854%, 92.871094%, 41.018677%)" offset="0.65625"/><stop stop-opacity="1" stop-color="rgb(30.105591%, 93.151855%, 41.374207%)" offset="0.671875"/><stop stop-opacity="1" stop-color="rgb(30.471802%, 93.434143%, 41.72821%)" offset="0.6875"/><stop stop-opacity="1" stop-color="rgb(30.839539%, 93.714905%, 42.08374%)" offset="0.703125"/><stop stop-opacity="1" stop-color="rgb(31.20575%, 93.995667%, 42.437744%)" offset="0.71875"/><stop stop-opacity="1" stop-color="rgb(31.573486%, 94.277954%, 42.791748%)" offset="0.734375"/><stop stop-opacity="1" stop-color="rgb(31.941223%, 94.558716%, 43.147278%)" offset="0.75"/><stop stop-opacity="1" stop-color="rgb(32.307434%, 94.839478%, 43.501282%)" offset="0.765625"/><stop stop-opacity="1" stop-color="rgb(32.675171%, 95.121765%, 43.856812%)" offset="0.78125"/><stop stop-opacity="1" stop-color="rgb(33.041382%, 95.402527%, 44.210815%)" offset="0.796875"/><stop stop-opacity="1" stop-color="rgb(33.409119%, 95.683289%, 44.566345%)" offset="0.8125"/><stop stop-opacity="1" stop-color="rgb(33.776855%, 95.965576%, 44.920349%)" offset="0.828125"/><stop stop-opacity="1" stop-color="rgb(34.143066%, 96.246338%, 45.274353%)" offset="0.84375"/><stop stop-opacity="1" stop-color="rgb(34.510803%, 96.5271%, 45.629883%)" offset="0.859375"/><stop stop-opacity="1" stop-color="rgb(34.87854%, 96.807861%, 45.983887%)" offset="0.875"/><stop stop-opacity="1" stop-color="rgb(35.244751%, 97.090149%, 46.339417%)" offset="0.890625"/><stop stop-opacity="1" stop-color="rgb(35.612488%, 97.370911%, 46.69342%)" offset="0.90625"/><stop stop-opacity="1" stop-color="rgb(35.978699%, 97.651672%, 47.04895%)" offset="0.921875"/><stop stop-opacity="1" stop-color="rgb(36.346436%, 97.93396%, 47.402954%)" offset="0.9375"/><stop stop-opacity="1" stop-color="rgb(36.714172%, 98.214722%, 47.756958%)" offset="0.953125"/><stop stop-opacity="1" stop-color="rgb(37.080383%, 98.495483%, 48.112488%)" offset="0.96875"/><stop stop-opacity="1" stop-color="rgb(37.44812%, 98.777771%, 48.466492%)" offset="0.984375"/><stop stop-opacity="1" stop-color="rgb(37.815857%, 99.058533%, 48.822021%)" offset="1"/></linearGradient></defs><g clip-path="url(#a365c12198)"><rect x="-15" fill="url(#efd219ed0f)" width="180" y="-15" height="179.999997"/></g><path fill="#ffffff" d="M 114.453125 35.90625 C 104.359375 25.8125 90.925781 20.238281 76.617188 20.238281 C 47.132812 20.238281 23.167969 44.230469 23.140625 73.691406 C 23.140625 83.117188 25.609375 92.3125 30.28125 100.402344 L 22.707031 128.117188 L 51.0625 120.695312 C 58.871094 124.957031 67.652344 127.191406 76.617188 127.191406 L 76.644531 127.191406 C 106.105469 127.191406 130.09375 103.203125 130.121094 73.742188 C 130.121094 59.433594 124.546875 46 114.453125 35.90625 Z M 76.644531 118.152344 C 68.65625 118.152344 60.820312 115.992188 54.015625 111.960938 L 52.398438 111.011719 L 35.574219 115.429688 L 40.070312 99.042969 L 39.015625 97.371094 C 34.570312 90.308594 32.207031 82.113281 32.207031 73.714844 C 32.207031 49.210938 52.167969 29.28125 76.667969 29.28125 C 88.535156 29.28125 99.707031 33.902344 108.082031 42.304688 C 116.480469 50.703125 121.105469 61.875 121.078125 73.742188 C 121.054688 98.21875 101.121094 118.152344 76.644531 118.152344 Z M 101.019531 84.890625 C 99.683594 84.222656 93.109375 80.984375 91.902344 80.546875 C 90.667969 80.109375 89.792969 79.878906 88.894531 81.214844 C 87.996094 82.550781 85.453125 85.554688 84.65625 86.457031 C 83.886719 87.355469 83.089844 87.457031 81.753906 86.789062 C 80.417969 86.121094 76.105469 84.707031 71.019531 80.164062 C 67.039062 76.617188 64.367188 72.25 63.597656 70.917969 C 62.824219 69.582031 63.519531 68.859375 64.1875 68.195312 C 64.777344 67.601562 65.523438 66.625 66.191406 65.855469 C 66.859375 65.085938 67.089844 64.519531 67.527344 63.621094 C 67.960938 62.722656 67.757812 61.953125 67.421875 61.285156 C 67.089844 60.617188 64.417969 54.042969 63.3125 51.371094 C 62.234375 48.777344 61.128906 49.109375 60.308594 49.082031 C 59.539062 49.03125 58.640625 49.03125 57.738281 49.03125 C 56.839844 49.03125 55.402344 49.367188 54.167969 50.703125 C 52.9375 52.039062 49.496094 55.273438 49.496094 61.847656 C 49.496094 68.425781 54.273438 74.769531 54.941406 75.667969 C 55.609375 76.566406 64.367188 90.050781 77.773438 95.832031 C 80.957031 97.21875 83.449219 98.039062 85.402344 98.65625 C 88.613281 99.683594 91.515625 99.527344 93.828125 99.195312 C 96.394531 98.808594 101.738281 95.957031 102.84375 92.851562 C 103.945312 89.742188 103.945312 87.046875 103.613281 86.507812 C 103.226562 85.890625 102.355469 85.554688 101.019531 84.890625 Z M 101.019531 84.890625 " fill-opacity="1" fill-rule="evenodd"/></svg>